<svg width="2403" height="569" viewBox="0 0 2403 569" fill="none" xmlns="http://www.w3.org/2000/svg">
<path d="M2403 569H0V0H2403V569ZM1626.32 212.453C1609.7 206.722 1581.3 204.429 1562.05 207.295C1528.52 212.31 1497.49 233.23 1481.14 261.888C1467.29 285.96 1462.58 307.311 1463.69 340.554C1464.94 376.232 1472.56 398.585 1491.26 421.798C1505.8 439.995 1530.18 454.611 1554.43 459.77C1565.51 462.062 1571.47 462.492 1588.64 461.919C1610.12 461.202 1618.57 459.626 1633.94 453.178C1648.21 447.16 1657.63 440.426 1670.38 427.243C1692.13 404.604 1702.38 378.525 1703.9 341.843C1704.87 319.92 1702.93 304.731 1696.84 285.817C1685.34 250.568 1660.13 224.203 1626.32 212.453ZM1154.49 272.778C1134.68 229.792 1094.5 205.432 1045.05 206.005C1037.71 206.148 1028.7 206.722 1024.82 207.295C984.095 213.6 950.432 240.538 935.332 279.083C927.99 297.567 925.358 315.335 926.189 339.837C927.159 368.351 930.761 382.68 942.259 404.604C952.233 423.661 976.338 445.297 996.425 453.465C1013.88 460.486 1020.94 461.632 1046.3 461.632C1067.21 461.632 1072.06 461.203 1082.04 458.337C1111.96 449.883 1137.31 429.536 1152 402.024C1162.66 381.964 1167.51 356.601 1166.4 327.657C1165.43 304.588 1162.11 289.4 1154.49 272.778ZM150 109.858V458.05L184.356 457.764L218.573 457.334L218.989 283.524L219.266 109.858H150ZM424.431 208.871C413.764 206.578 394.369 205.719 385.78 207.295C364.031 211.45 344.637 224.633 332.308 243.69L328.705 249.278V211.594H262.211L262.487 334.392L262.903 457.334L295.735 457.764L328.566 458.05L328.982 381.104C329.398 310.607 329.675 303.442 332.03 296.707C335.909 285.244 343.39 276.074 352.948 271.059C360.567 267.047 362.092 266.76 376.36 266.76C389.521 266.76 392.568 267.19 397.417 269.912C405.313 274.211 412.378 282.809 416.118 292.695C419.304 301.149 419.304 301.437 419.858 379.528L420.413 458.05H485.245V371.646C485.245 301.722 484.829 283.524 483.167 275.5C475.825 239.535 454.769 215.606 424.431 208.871ZM529.575 109.858L529.853 283.524L530.268 457.334L564.069 457.764L597.871 458.05L597.179 327.514C596.486 182.363 595.655 193.396 604.937 225.206C610.201 243.117 630.149 306.164 634.443 318.344C636.383 323.789 642.063 339.981 646.911 354.166C651.76 368.352 658.547 387.695 661.872 397.152C665.197 406.609 671.292 423.947 675.448 435.84L682.929 457.334L710.912 457.764C732.522 458.05 738.895 457.763 739.449 456.33C739.728 455.323 747.486 432.828 756.628 406.466C800.542 278.796 799.711 281.375 812.871 235.236C817.165 220.192 821.875 204.43 823.261 200.131L825.893 192.25L824.923 238.818C824.369 264.467 823.953 324.075 823.953 371.36V457.334H891.834V110.575L841.27 110.146L790.706 109.858L782.671 133.788C778.099 147.114 765.632 184.226 754.688 216.608C738.065 265.613 726.29 304.445 713.406 351.3L711.467 358.321L708.558 348.435C706.895 342.846 703.016 329.377 699.969 318.344C690.964 286.39 682.098 258.592 673.647 235.236C672.262 231.224 668.938 221.624 666.167 213.743C663.535 205.862 654.807 180.07 646.634 156.428C638.599 132.786 631.673 112.582 631.396 111.578C630.98 110.289 619.481 109.858 580.139 109.858H529.575ZM1364.92 211.594V458.05L1397.89 457.764L1430.72 457.334L1431.13 334.392L1431.41 211.594H1364.92ZM1900.34 209.444C1890.5 206.865 1870.28 205.719 1860.72 207.295C1838.42 210.877 1819.71 223.2 1806.28 243.117L1801.98 249.565L1801.57 230.508L1801.15 211.594H1736.18V458.05L1769.15 457.764L1801.98 457.334L1803.37 302.582L1806.69 293.984C1811.26 282.378 1821.52 271.775 1831.63 268.479C1840.63 265.471 1856.7 265.327 1865.57 268.049C1876.79 271.631 1886.07 281.089 1890.36 293.411C1891.47 296.85 1892.17 320.924 1892.72 377.809L1893.41 457.334L1926.38 457.764L1959.21 458.05V373.223C1959.21 294.415 1958.94 287.25 1956.44 274.641C1949.66 240.825 1929.43 217.325 1900.34 209.444ZM1220.84 144.248V211.594H1179.29V264.61H1220.84V333.246C1220.84 373.223 1221.4 404.89 1222.23 409.332C1226.39 431.828 1239.13 445.87 1262.27 453.178C1270.99 455.9 1299.95 458.337 1319.2 457.764L1335.13 457.334L1335.55 430.396L1335.83 403.601H1320.59C1300.78 403.601 1293.43 401.737 1289.97 395.862C1287.48 391.707 1287.34 387.694 1287.34 327.944V264.61H1335.83V211.594H1287.34V144.248H1220.84ZM1030.92 263.894C1040.75 260.598 1057.66 261.745 1067.08 266.33C1081.21 273.065 1091.87 287.394 1097.14 306.881C1100.32 319.204 1100.32 349.581 1097 362.047C1089.24 391.134 1071.79 406.466 1046.3 406.466C1021.08 406.466 1004.04 391.85 995.594 362.763C993.654 356.172 993.1 349.437 993.1 334.105C993.1 316.338 993.515 312.755 996.84 302.438C1003.21 282.521 1014.99 269.195 1030.92 263.894ZM1530.18 341.27C1527.55 292.122 1549.72 260.599 1586.01 262.175C1594.88 262.605 1598.9 263.464 1605.27 266.76C1626.6 277.506 1637.13 300.289 1636.85 335.538C1636.85 351.586 1636.3 355.742 1633.11 365.915C1628.68 379.957 1622.58 389.558 1613.44 396.723C1603.47 404.603 1595.57 406.896 1581.16 406.18C1565.93 405.463 1556.23 401.021 1547.08 390.418C1536.56 378.238 1531.43 363.479 1530.18 341.27ZM2154.54 109.858C2137.92 105.417 2112.29 104.7 2096.36 108.282C2054.39 117.739 2020.86 145.825 2002.71 186.519C1991.08 212.454 1988.58 246.27 1996.06 276.79C1997.17 281.519 2001.47 292.409 2005.62 301.149C2022.11 335.825 2052.31 361.617 2088.74 372.363C2098.3 375.229 2102.87 375.659 2122.68 375.516C2139.58 375.516 2147.48 374.8 2153.16 373.08C2157.31 371.791 2162.3 370.357 2164.24 369.784C2172.14 367.348 2194.72 354.452 2203.72 347.001C2228.8 326.654 2246.8 294.844 2251.65 262.891C2254.15 245.983 2252.48 217.755 2248.05 202.996C2240.71 179.354 2229.49 160.153 2213.14 144.104C2195.13 126.337 2177.4 116.02 2154.54 109.858ZM2104.81 142.815C2116.03 140.38 2140.14 142.099 2152.6 146.254C2181 155.711 2205.11 180.787 2214.67 211.021C2219.93 227.785 2219.93 255.01 2214.67 271.345C2204.41 302.868 2180.73 326.941 2149.69 337.114C2137.92 340.983 2105.92 340.983 2094.97 337.114C2066.85 327.227 2046.21 308.599 2034.71 282.808C2013.93 236.096 2030.28 181.932 2073.5 154.994C2081.68 149.979 2093.87 145.251 2104.81 142.815ZM2076.83 172.62L2076.69 175.687C2076.54 179.382 2076.54 306.077 2076.71 306.501C2076.79 306.763 2078.92 306.804 2092.72 306.804H2108.63L2108.67 296.452C2108.69 290.782 2108.71 281.804 2108.71 276.537C2108.73 271.272 2108.81 266.832 2108.88 266.689C2109 266.508 2112.07 266.447 2123.08 266.447C2139.71 266.447 2144.64 266.185 2149.61 265.035C2150.03 264.934 2151.03 264.712 2151.82 264.53C2152.61 264.349 2153.47 264.127 2153.74 264.026C2154.01 263.946 2154.6 263.764 2155.08 263.623C2156.02 263.341 2157.46 262.856 2158.06 262.614C2160.61 261.565 2162.22 260.858 2162.85 260.495C2163.28 260.253 2164.24 259.708 2164.97 259.284C2166.14 258.618 2169.21 256.5 2169.48 256.177C2169.53 256.116 2170.05 255.672 2170.63 255.229C2171.72 254.361 2174.37 251.697 2175.73 250.104C2177.04 248.57 2179.71 244.454 2180.55 242.638C2182.2 239.127 2183.22 236.302 2183.68 233.86C2183.78 233.416 2183.97 232.468 2184.12 231.741C2184.93 227.968 2185.1 226.071 2185.1 220.341C2185.1 214.974 2184.96 212.956 2184.41 209.949C2184.1 208.295 2183.68 206.277 2183.49 205.712C2183.41 205.429 2183.22 204.803 2183.08 204.299C2182.8 203.229 2181.66 200.062 2181.22 199.053C2180.69 197.842 2178.67 194.17 2178.13 193.403C2177.84 193.02 2177.12 191.991 2176.5 191.144C2175.18 189.287 2171.82 185.735 2170.05 184.363C2168.61 183.213 2165.68 181.095 2165.56 181.095C2165.52 181.095 2164.81 180.691 2164.03 180.187C2163.22 179.682 2162.53 179.278 2162.49 179.278C2162.45 179.276 2161.47 178.813 2160.34 178.27C2159.19 177.705 2158.08 177.16 2157.86 177.059C2157.44 176.857 2156.48 176.534 2154.41 175.889C2151.76 175.041 2150.36 174.657 2148.84 174.375C2148 174.193 2147.06 174.012 2146.73 173.932C2145.37 173.629 2142.01 173.184 2138.09 172.821C2136.83 172.7 2124.22 172.62 2106.41 172.62H2076.83ZM2108.96 200.203C2109.18 199.961 2133.32 200.042 2134.72 200.284C2139.73 201.132 2142.28 201.979 2145 203.755C2147.46 205.349 2149.55 207.749 2150.82 210.393C2152.18 213.258 2152.66 215.74 2152.66 220.038C2152.68 225.95 2150.99 230.289 2147.31 233.658C2144.87 235.898 2141.13 237.693 2137.33 238.42C2134.72 238.924 2132.78 238.986 2121.26 239.006H2108.82V219.675C2108.82 209.044 2108.88 200.268 2108.96 200.203ZM1414.1 110.575C1407.72 107.853 1394.84 106.85 1387.22 108.426C1377.25 110.575 1368.1 117.883 1363.12 127.77C1359.24 135.364 1358.96 151.269 1362.56 158.72C1368.8 171.759 1379.88 178.78 1395.53 179.783C1404.81 180.356 1407.17 179.927 1413.54 176.918C1428.09 170.04 1434.87 159.293 1434.74 143.531C1434.6 128.2 1427.12 116.307 1414.1 110.575Z" fill="#244357"/>
</svg>
