<svg width="2103" height="357" viewBox="0 0 2103 357" fill="none" xmlns="http://www.w3.org/2000/svg">
<path d="M1412.05 101.295C1431.3 98.4291 1459.7 100.722 1476.32 106.453C1510.13 118.203 1535.34 144.568 1546.84 179.817C1552.93 198.731 1554.87 213.92 1553.9 235.843C1552.38 272.524 1542.13 298.603 1520.38 321.243C1507.63 334.425 1498.21 341.16 1483.94 347.178C1468.57 353.626 1460.12 355.202 1438.64 355.919C1421.47 356.492 1415.51 356.062 1404.43 353.769C1380.18 348.611 1355.8 333.995 1341.26 315.798C1322.56 292.585 1314.94 270.232 1313.69 234.554C1312.58 201.311 1317.29 179.96 1331.14 155.888C1347.49 127.23 1378.52 106.31 1412.05 101.295ZM895.049 100.005C944.504 99.4316 984.678 123.792 1004.49 166.778C1012.11 183.399 1015.43 198.588 1016.4 221.657C1017.51 250.601 1012.66 275.964 1002 296.024C987.311 323.536 961.959 343.883 932.036 352.337C922.062 355.202 917.213 355.632 896.296 355.632C870.945 355.632 863.879 354.486 846.425 347.465C826.338 339.297 802.233 317.661 792.259 298.603C780.761 276.68 777.159 262.351 776.189 233.837C775.358 209.335 777.99 191.567 785.332 173.083C800.432 134.538 834.095 107.6 874.823 101.295C878.702 100.722 887.707 100.148 895.049 100.005ZM68.9893 177.524L68.5732 351.334L34.3564 351.764L0 352.05V3.85829H69.2656L68.9893 177.524ZM235.78 101.295C244.369 99.7187 263.764 100.578 274.431 102.871C304.769 109.606 325.825 133.535 333.167 169.5C334.829 177.524 335.245 195.722 335.245 265.646V352.05H270.413L269.858 273.528C269.304 195.437 269.304 195.149 266.118 186.695C262.378 176.808 255.313 168.211 247.417 163.912C242.568 161.19 239.521 160.76 226.36 160.76C212.092 160.76 210.567 161.046 202.948 165.058C193.39 170.074 185.909 179.244 182.03 190.707C179.675 197.441 179.398 204.606 178.982 275.104L178.566 352.05L145.735 351.764L112.903 351.334L112.487 228.391L112.211 105.594H178.705V143.278L182.308 137.69C194.637 118.633 214.031 105.45 235.78 101.295ZM430.139 3.85829C469.481 3.85829 480.98 4.28847 481.396 5.57801C481.673 6.58103 488.599 26.785 496.634 50.4276C504.807 74.0702 513.535 99.8622 516.167 107.743C518.938 115.624 522.262 125.224 523.647 129.236C532.098 152.592 540.964 180.39 549.969 212.344C553.016 223.377 556.895 236.846 558.558 242.434L561.467 252.321L563.406 245.3C576.29 198.444 588.065 159.613 604.688 110.608C615.632 78.2254 628.099 41.114 632.671 27.788L640.706 3.85829L691.27 4.1454L741.834 4.57508V351.334H673.953V265.36C673.953 218.075 674.369 158.467 674.923 132.818L675.893 86.2499L673.261 94.1307C671.875 98.4299 667.165 114.191 662.871 129.236C649.711 175.375 650.542 172.796 606.628 300.466C597.486 326.828 589.728 349.323 589.449 350.33C588.895 351.763 582.523 352.05 560.912 351.764L532.929 351.334L525.448 329.84C521.292 317.947 515.197 300.609 511.872 291.152C508.547 281.695 501.76 262.351 496.911 248.166C492.063 233.98 486.383 217.789 484.443 212.344C480.149 200.164 460.201 137.117 454.937 119.206C445.655 87.3959 446.486 76.3627 447.179 221.514L447.871 352.05L414.069 351.764L380.268 351.334L379.853 177.524L379.575 3.85829H430.139ZM1281.13 228.391L1280.72 351.334L1247.89 351.764L1214.92 352.05V105.594H1281.41L1281.13 228.391ZM1710.72 101.295C1720.28 99.7186 1740.5 100.865 1750.34 103.444C1779.43 111.325 1799.66 134.824 1806.44 168.641C1808.94 181.25 1809.21 188.414 1809.21 267.223V352.05L1776.38 351.764L1743.41 351.334L1742.72 271.808C1742.17 214.923 1741.47 190.85 1740.36 187.411C1736.07 175.088 1726.79 165.631 1715.57 162.049C1706.7 159.326 1690.63 159.47 1681.63 162.479C1671.52 165.775 1661.26 176.378 1656.69 187.984L1653.37 196.582L1651.98 351.334L1619.15 351.764L1586.18 352.05V105.594H1651.15L1651.57 124.508L1651.98 143.565L1656.28 137.117C1669.71 117.2 1688.42 104.877 1710.72 101.295ZM1137.34 105.594H1185.83V158.61H1137.34V221.944C1137.34 281.694 1137.48 285.707 1139.97 289.862C1143.43 295.737 1150.78 297.6 1170.59 297.6H1185.83L1185.55 324.395L1185.13 351.334L1169.2 351.764C1149.95 352.337 1120.99 349.9 1112.27 347.178C1089.13 339.87 1076.39 325.828 1072.23 303.332C1071.4 298.89 1070.84 267.223 1070.84 227.246V158.61H1029.29V105.594H1070.84V38.2479H1137.34V105.594ZM917.075 160.33C907.655 155.745 890.755 154.598 880.919 157.893C864.988 163.195 853.212 176.521 846.84 196.438C843.515 206.755 843.1 210.338 843.1 228.105C843.1 243.437 843.654 250.171 845.594 256.763C854.044 285.85 871.083 300.466 896.296 300.466C921.785 300.466 939.24 285.134 946.998 256.047C950.323 243.581 950.323 213.204 947.137 200.881C941.873 181.394 931.205 167.065 917.075 160.33ZM1436.01 156.175C1399.72 154.599 1377.55 186.122 1380.18 235.269C1381.43 257.479 1386.56 272.238 1397.08 284.418C1406.23 295.021 1415.93 299.463 1431.16 300.18C1445.57 300.896 1453.47 298.603 1463.44 290.723C1472.58 283.558 1478.68 273.957 1483.11 259.915C1486.3 249.742 1486.85 245.586 1486.85 229.538C1487.13 194.289 1476.6 171.506 1455.27 160.76C1448.9 157.464 1444.88 156.605 1436.01 156.175ZM1946.36 2.28212C1962.29 -1.3 1987.92 -0.583589 2004.54 3.85829C2027.4 10.0197 2045.13 20.3367 2063.14 38.1044C2079.49 54.1527 2090.71 73.3534 2098.05 96.996C2102.48 111.755 2104.15 139.982 2101.65 156.891C2096.8 188.844 2078.8 220.654 2053.72 241.001C2044.72 248.452 2022.14 261.348 2014.24 263.784C2012.3 264.357 2007.31 265.79 2003.16 267.08C1997.48 268.799 1989.58 269.516 1972.68 269.516C1952.87 269.659 1948.3 269.229 1938.74 266.363C1902.31 255.617 1872.11 229.825 1855.62 195.149C1851.47 186.409 1847.17 175.518 1846.06 170.79C1838.58 140.27 1841.08 106.454 1852.71 80.5184C1870.86 39.8245 1904.39 11.7392 1946.36 2.28212ZM2002.6 40.2538C1990.14 36.0985 1966.03 34.3794 1954.81 36.8153C1943.87 39.2512 1931.68 43.9791 1923.5 48.994C1880.28 75.9322 1863.93 130.095 1884.71 176.808C1896.21 202.599 1916.85 221.227 1944.97 231.114C1955.92 234.983 1987.92 234.983 1999.69 231.114C2030.73 220.941 2054.41 196.868 2064.67 165.345C2069.93 149.01 2069.93 121.785 2064.67 105.02C2055.11 74.7865 2031 49.7108 2002.6 40.2538ZM1956.41 66.62C1974.22 66.62 1986.83 66.7001 1988.09 66.8212C1992.01 67.1844 1995.37 67.6289 1996.73 67.9315C1997.06 68.0122 1998 68.1933 1998.84 68.3749C2000.36 68.6574 2001.76 69.0411 2004.41 69.8886C2006.48 70.5342 2007.44 70.8567 2007.86 71.0585C2008.08 71.1596 2009.19 71.7046 2010.34 72.2694C2011.47 72.813 2012.45 73.2761 2012.49 73.2782C2012.53 73.2782 2013.22 73.682 2014.03 74.1864C2014.81 74.6908 2015.52 75.0946 2015.56 75.0946C2015.68 75.0953 2018.61 77.2132 2020.05 78.3632C2021.82 79.7353 2025.18 83.2871 2026.5 85.1434C2027.12 85.9908 2027.84 87.0198 2028.13 87.4032C2028.67 88.17 2030.69 91.8418 2031.22 93.0526C2031.66 94.0614 2032.8 97.2288 2033.08 98.2987C2033.22 98.8032 2033.41 99.4293 2033.49 99.7118C2033.68 100.277 2034.1 102.295 2034.41 103.949C2034.96 106.956 2035.1 108.973 2035.1 114.341C2035.1 120.071 2034.93 121.968 2034.12 125.741C2033.97 126.468 2033.78 127.416 2033.68 127.86C2033.22 130.302 2032.2 133.127 2030.55 136.638C2029.71 138.454 2027.04 142.57 2025.73 144.103C2024.37 145.697 2021.72 148.361 2020.63 149.228C2020.05 149.672 2019.53 150.116 2019.48 150.177C2019.21 150.5 2016.14 152.618 2014.97 153.284C2014.24 153.708 2013.28 154.253 2012.85 154.495C2012.22 154.858 2010.61 155.565 2008.06 156.614C2007.46 156.856 2006.02 157.34 2005.08 157.623C2004.6 157.764 2004.01 157.946 2003.74 158.026C2003.47 158.127 2002.61 158.349 2001.82 158.53C2001.03 158.712 2000.03 158.934 1999.61 159.035C1994.64 160.185 1989.71 160.447 1973.08 160.447C1962.07 160.447 1959 160.508 1958.88 160.689C1958.81 160.831 1958.73 165.271 1958.71 170.537C1958.71 175.803 1958.69 184.782 1958.67 190.452L1958.63 200.804H1942.72C1928.92 200.804 1926.79 200.763 1926.71 200.501C1926.54 200.077 1926.54 73.379 1926.69 69.6864L1926.83 66.62H1956.41ZM1984.72 94.2841C1983.32 94.042 1959.18 93.961 1958.96 94.203C1958.88 94.2635 1958.82 103.041 1958.82 113.675V133.006H1971.26C1982.78 132.986 1984.72 132.924 1987.33 132.42C1991.13 131.693 1994.87 129.898 1997.31 127.658C2000.99 124.288 2002.68 119.95 2002.66 114.038C2002.66 109.74 2002.18 107.258 2000.82 104.392C1999.55 101.749 1997.46 99.3488 1995 97.7548C1992.28 95.9792 1989.73 95.1315 1984.72 94.2841ZM1237.22 2.42567C1244.84 0.849591 1257.72 1.85264 1264.1 4.57508C1277.12 10.3066 1284.6 22.1995 1284.74 37.5311C1284.87 53.2929 1278.09 64.04 1263.54 70.9179C1257.17 73.9268 1254.81 74.3562 1245.53 73.7831C1229.88 72.7801 1218.8 65.7589 1212.56 52.7196C1208.96 45.2684 1209.24 29.3636 1213.12 21.7694C1218.1 11.8827 1227.25 4.57498 1237.22 2.42567Z" fill="#89A9BA"/>
</svg>
